# MagicaVoxel @ ephtracy

# material
mtllib sun.mtl

# normals
vn -1 0 0
vn 1 0 0
vn 0 0 1
vn 0 0 -1
vn 0 -1 0
vn 0 1 0

# texcoords
vt 0.0449219 0.5

# verts
v 0.5 1 1.5
v 0.5 2 1.5
v 0.5 2 0.5
v 0.5 1 0.5
v -1.5 1 -0.5
v -1.5 2 -0.5
v -1.5 2 -1.5
v -1.5 1 -1.5
v 0.5 0 0.5
v 0.5 1 -0.5
v 0.5 0 -0.5
v -1.5 2 0.5
v -1.5 3 0.5
v -1.5 3 -0.5
v -1.5 0 0.5
v -1.5 1 0.5
v -1.5 0 -0.5
v 0.5 3 0.5
v 0.5 3 -0.5
v 0.5 2 -0.5
v -1.5 1 1.5
v -1.5 2 1.5
v 0.5 2 -1.5
v 0.5 1 -1.5
v -0.5 2 -0.5
v -0.5 3 -0.5
v -0.5 3 -1.5
v -0.5 2 -1.5
v -0.5 0 -0.5
v -0.5 1 -0.5
v -0.5 1 -1.5
v -0.5 0 -1.5
v -0.5 2 1.5
v -0.5 3 1.5
v -0.5 3 0.5
v -0.5 2 0.5
v -0.5 0 1.5
v -0.5 1 1.5
v -0.5 1 0.5
v -0.5 0 0.5
v 1.5 1 1.5
v 1.5 1 0.5
v 1.5 2 0.5
v 1.5 2 1.5
v 1.5 0 0.5
v 1.5 0 -0.5
v 1.5 1 -0.5
v 1.5 2 -0.5
v 1.5 3 -0.5
v 1.5 3 0.5
v 1.5 1 -1.5
v 1.5 2 -1.5
v 0.5 3 -1.5
v 0.5 0 -1.5
v 0.5 3 1.5
v 0.5 0 1.5

# faces

usemtl palette

f 1/1/1 2/1/1 3/1/1 4/1/1

f 5/1/1 6/1/1 7/1/1 8/1/1

f 9/1/1 4/1/1 10/1/1 11/1/1

f 12/1/1 13/1/1 14/1/1 6/1/1

f 15/1/1 16/1/1 5/1/1 17/1/1

f 3/1/1 18/1/1 19/1/1 20/1/1

f 21/1/1 22/1/1 12/1/1 16/1/1

f 10/1/1 20/1/1 23/1/1 24/1/1

f 25/1/1 26/1/1 27/1/1 28/1/1

f 29/1/1 30/1/1 31/1/1 32/1/1

f 33/1/1 34/1/1 35/1/1 36/1/1

f 37/1/1 38/1/1 39/1/1 40/1/1

f 41/1/2 42/1/2 43/1/2 44/1/2

f 30/1/2 31/1/2 28/1/2 25/1/2

f 45/1/2 46/1/2 47/1/2 42/1/2

f 36/1/2 25/1/2 26/1/2 35/1/2

f 40/1/2 29/1/2 30/1/2 39/1/2

f 43/1/2 48/1/2 49/1/2 50/1/2

f 38/1/2 39/1/2 36/1/2 33/1/2

f 47/1/2 51/1/2 52/1/2 48/1/2

f 20/1/2 23/1/2 53/1/2 19/1/2

f 11/1/2 54/1/2 24/1/2 10/1/2

f 2/1/2 3/1/2 18/1/2 55/1/2

f 56/1/2 9/1/2 4/1/2 1/1/2

f 1/1/3 41/1/3 44/1/3 2/1/3

f 5/1/3 30/1/3 25/1/3 6/1/3

f 9/1/3 45/1/3 42/1/3 4/1/3

f 12/1/3 36/1/3 35/1/3 13/1/3

f 15/1/3 40/1/3 39/1/3 16/1/3

f 3/1/3 43/1/3 50/1/3 18/1/3

f 21/1/3 38/1/3 33/1/3 22/1/3

f 10/1/3 47/1/3 48/1/3 20/1/3

f 25/1/3 20/1/3 19/1/3 26/1/3

f 29/1/3 11/1/3 10/1/3 30/1/3

f 33/1/3 2/1/3 55/1/3 34/1/3

f 37/1/3 56/1/3 1/1/3 38/1/3

f 4/1/4 3/1/4 43/1/4 42/1/4

f 8/1/4 7/1/4 28/1/4 31/1/4

f 11/1/4 10/1/4 47/1/4 46/1/4

f 6/1/4 14/1/4 26/1/4 25/1/4

f 17/1/4 5/1/4 30/1/4 29/1/4

f 20/1/4 19/1/4 49/1/4 48/1/4

f 16/1/4 12/1/4 36/1/4 39/1/4

f 24/1/4 23/1/4 52/1/4 51/1/4

f 28/1/4 27/1/4 53/1/4 23/1/4

f 32/1/4 31/1/4 24/1/4 54/1/4

f 36/1/4 35/1/4 18/1/4 3/1/4

f 40/1/4 39/1/4 4/1/4 9/1/4

f 1/1/5 4/1/5 42/1/5 41/1/5

f 5/1/5 8/1/5 31/1/5 30/1/5

f 9/1/5 11/1/5 46/1/5 45/1/5

f 12/1/5 6/1/5 25/1/5 36/1/5

f 15/1/5 17/1/5 29/1/5 40/1/5

f 3/1/5 20/1/5 48/1/5 43/1/5

f 21/1/5 16/1/5 39/1/5 38/1/5

f 10/1/5 24/1/5 51/1/5 47/1/5

f 25/1/5 28/1/5 23/1/5 20/1/5

f 29/1/5 32/1/5 54/1/5 11/1/5

f 33/1/5 36/1/5 3/1/5 2/1/5

f 37/1/5 40/1/5 9/1/5 56/1/5

f 2/1/6 44/1/6 43/1/6 3/1/6

f 6/1/6 25/1/6 28/1/6 7/1/6

f 4/1/6 42/1/6 47/1/6 10/1/6

f 13/1/6 35/1/6 26/1/6 14/1/6

f 16/1/6 39/1/6 30/1/6 5/1/6

f 18/1/6 50/1/6 49/1/6 19/1/6

f 22/1/6 33/1/6 36/1/6 12/1/6

f 20/1/6 48/1/6 52/1/6 23/1/6

f 26/1/6 19/1/6 53/1/6 27/1/6

f 30/1/6 10/1/6 24/1/6 31/1/6

f 34/1/6 55/1/6 18/1/6 35/1/6

f 38/1/6 1/1/6 4/1/6 39/1/6

# numNormals 6
# numTexCoords 1
# numVerts 56
# numFaces 72
